<svg width="29" height="21" viewBox="0 0 29 21" fill="none" xmlns="http://www.w3.org/2000/svg">
<mask id="mask0_4778_20666" style="mask-type:alpha" maskUnits="userSpaceOnUse" x="0" y="0" width="29" height="21">
<path d="M25.6749 0H2.7249C1.23373 0 0.0249023 1.20883 0.0249023 2.7V17.55C0.0249023 19.0412 1.23373 20.25 2.7249 20.25H25.6749C27.1661 20.25 28.3749 19.0412 28.3749 17.55V2.7C28.3749 1.20883 27.1661 0 25.6749 0Z" fill="white"/>
</mask>
<g mask="url(#mask0_4778_20666)">
<path d="M25.6749 0H2.7249C1.23373 0 0.0249023 1.20883 0.0249023 2.7V17.55C0.0249023 19.0412 1.23373 20.25 2.7249 20.25H25.6749C27.1661 20.25 28.3749 19.0412 28.3749 17.55V2.7C28.3749 1.20883 27.1661 0 25.6749 0Z" fill="#EA0312"/>
<path d="M14.2001 14.8499C16.8096 14.8499 18.9251 12.7344 18.9251 10.1249C18.9251 7.51536 16.8096 5.3999 14.2001 5.3999C11.5906 5.3999 9.4751 7.51536 9.4751 10.1249C9.4751 12.7344 11.5906 14.8499 14.2001 14.8499Z" fill="white"/>
<path fill-rule="evenodd" clip-rule="evenodd" d="M16.2251 9.4502H17.5751V10.8002H16.2251V9.4502Z" fill="#EA0312"/>
<path fill-rule="evenodd" clip-rule="evenodd" d="M16.8997 12.15C16.2841 12.9694 15.304 13.5 14.1997 13.5C12.3367 13.5 10.8247 11.988 10.8247 10.125C10.8247 8.262 12.3367 6.75 14.1997 6.75C15.304 6.75 16.2841 7.28055 16.8997 8.1H14.8747C13.7569 8.1 12.8497 9.0072 12.8497 10.125C12.8497 11.2428 13.7569 12.15 14.8747 12.15H16.8997Z" fill="#EA0312"/>
<path d="M25.6747 0.674805H2.72471C1.60633 0.674805 0.699707 1.58143 0.699707 2.6998V17.5498C0.699707 18.6682 1.60633 19.5748 2.72471 19.5748H25.6747C26.7931 19.5748 27.6997 18.6682 27.6997 17.5498V2.6998C27.6997 1.58143 26.7931 0.674805 25.6747 0.674805Z" stroke="black" stroke-opacity="0.1" stroke-width="1.35"/>
</g>
</svg>
